<svg id="visual" viewBox="0 0 900 46" width="900" height="46" xmlns="http://www.w3.org/2000/svg" xmlns:xlink="http://www.w3.org/1999/xlink" version="1.1"><path d="M0 25L6.5 23.3C13 21.7 26 18.3 39 18C52 17.7 65 20.3 78 20.3C91 20.3 104 17.7 117.2 17.8C130.3 18 143.7 21 156.8 21.7C170 22.3 183 20.7 196 20C209 19.3 222 19.7 235 20.3C248 21 261 22 274 23.3C287 24.7 300 26.3 313 27.3C326 28.3 339 28.7 352 28.7C365 28.7 378 28.3 391 27C404 25.7 417 23.3 430.2 23.3C443.3 23.3 456.7 25.7 469.8 25C483 24.3 496 20.7 509 19.2C522 17.7 535 18.3 548 18.3C561 18.3 574 17.7 587 19.2C600 20.7 613 24.3 626 26.3C639 28.3 652 28.7 665 27.3C678 26 691 23 704 21.8C717 20.7 730 21.3 743.2 22.3C756.3 23.3 769.7 24.7 782.8 25.5C796 26.3 809 26.7 822 25.5C835 24.3 848 21.7 861 22C874 22.3 887 25.7 893.5 27.3L900 29L900 47L893.5 47C887 47 874 47 861 47C848 47 835 47 822 47C809 47 796 47 782.8 47C769.7 47 756.3 47 743.2 47C730 47 717 47 704 47C691 47 678 47 665 47C652 47 639 47 626 47C613 47 600 47 587 47C574 47 561 47 548 47C535 47 522 47 509 47C496 47 483 47 469.8 47C456.7 47 443.3 47 430.2 47C417 47 404 47 391 47C378 47 365 47 352 47C339 47 326 47 313 47C300 47 287 47 274 47C261 47 248 47 235 47C222 47 209 47 196 47C183 47 170 47 156.8 47C143.7 47 130.3 47 117.2 47C104 47 91 47 78 47C65 47 52 47 39 47C26 47 13 47 6.5 47L0 47Z" fill="#d41701"></path></svg>